<?xml version="1.0" encoding="UTF-8"?>
<svg version="1.1" xmlns="http://www.w3.org/2000/svg" width="194" height="180">
<path d="M0 0 C64.02 0 128.04 0 194 0 C194 59.4 194 118.8 194 180 C129.98 180 65.96 180 0 180 C0 120.6 0 61.2 0 0 Z " fill="#FEA900" transform="translate(0,0)"/>
<path d="M0 0 C10.54401896 6.32248437 18.17302037 14.48390485 22.09765625 26.2578125 C22.97933484 36.30894844 23.62909658 47.46003203 18.09765625 56.2578125 C17.61167969 57.03125 17.12570313 57.8046875 16.625 58.6015625 C10.88840583 66.7385755 2.76075932 72.69908985 -6.90234375 75.2578125 C-10.22749822 75.67837998 -13.49141868 75.7233648 -16.83984375 75.6953125 C-17.68224609 75.71529297 -18.52464844 75.73527344 -19.39257812 75.75585938 C-29.62364367 75.74798327 -37.95457714 71.02514215 -45.40234375 64.1953125 C-53.8740672 55.49767642 -56.25591751 46.05121337 -56.28295898 34.32226562 C-56.06319073 23.28746947 -52.00360203 15.36549191 -44.37109375 7.453125 C-32.60058236 -3.0136905 -14.64444968 -7.18406966 0 0 Z " fill="#FEAD03" transform="translate(90.90234375,29.7421875)"/>
<path d="M0 0 C10.54401896 6.32248437 18.17302037 14.48390485 22.09765625 26.2578125 C22.97933484 36.30894844 23.62909658 47.46003203 18.09765625 56.2578125 C17.61167969 57.03125 17.12570313 57.8046875 16.625 58.6015625 C10.88840583 66.7385755 2.76075932 72.69908985 -6.90234375 75.2578125 C-10.22749822 75.67837998 -13.49141868 75.7233648 -16.83984375 75.6953125 C-17.68224609 75.71529297 -18.52464844 75.73527344 -19.39257812 75.75585938 C-29.62364367 75.74798327 -37.95457714 71.02514215 -45.40234375 64.1953125 C-53.8740672 55.49767642 -56.25591751 46.05121337 -56.28295898 34.32226562 C-56.06319073 23.28746947 -52.00360203 15.36549191 -44.37109375 7.453125 C-32.60058236 -3.0136905 -14.64444968 -7.18406966 0 0 Z M-40.2734375 20.015625 C-45.3922486 27.06166234 -45.78016685 33.78227908 -44.90234375 42.2578125 C-43.181412 49.96412323 -39.18885691 55.53748947 -32.90234375 60.2578125 C-25.96577113 64.39172952 -18.85216727 65.29611399 -10.90234375 64.2578125 C-3.86061125 62.40315901 2.42284493 59.31364054 6.53515625 53.078125 C11.26005714 44.89008652 12.59615008 36.91990611 10.484375 27.53125 C7.9061817 20.19418889 3.46430765 14.90019643 -3.1875 10.875 C-17.30945673 4.30771606 -30.73999189 8.26733848 -40.2734375 20.015625 Z " fill="#FEFDF9" transform="translate(90.90234375,29.7421875)"/>
<path d="M0 0 C1.99701936 0.26556108 3.97764818 0.64787339 5.953125 1.04296875 C5.953125 1.70296875 5.953125 2.36296875 5.953125 3.04296875 C6.54351562 3.16542969 7.13390625 3.28789063 7.7421875 3.4140625 C14.59696149 5.36391871 19.48368908 11.09679679 22.953125 17.04296875 C27.73273942 27.89604227 30.20336627 39.5841685 25.953125 51.04296875 C23.88225863 54.91150012 21.50272971 58.47568743 18.953125 62.04296875 C18.50066406 62.71714844 18.04820312 63.39132813 17.58203125 64.0859375 C12.19467275 71.32769834 2.81520748 75.29317462 -5.91796875 76.79296875 C-6.62050781 76.87546875 -7.32304688 76.95796875 -8.046875 77.04296875 C-8.73910156 77.12546875 -9.43132812 77.20796875 -10.14453125 77.29296875 C-20.60530762 77.90049115 -30.49230244 73.75109746 -38.59375 67.37890625 C-44.01433492 62.21726647 -48.09419042 56.40423396 -48.984375 48.85546875 C-49.005 47.59734375 -49.025625 46.33921875 -49.046875 45.04296875 C-45.81433704 42.88794344 -44.79536577 42.5744074 -41.046875 43.04296875 C-38.62559372 45.04847445 -37.49715316 46.9849922 -36.296875 49.85546875 C-33.07314692 56.48540009 -27.46012714 60.59394647 -20.703125 63.34765625 C-13.8944765 65.12992012 -6.01554853 65.39735937 0.453125 62.35546875 C2.28305668 61.26734061 2.28305668 61.26734061 3.953125 60.04296875 C5.025625 59.27984375 6.098125 58.51671875 7.203125 57.73046875 C13.38114839 51.69285498 15.05949167 45.33808262 15.328125 36.85546875 C15.31469068 30.94436665 14.02670662 27.02618644 11.046875 21.96875 C9.953125 20.04296875 9.953125 20.04296875 9.953125 18.04296875 C9.293125 18.04296875 8.633125 18.04296875 7.953125 18.04296875 C7.953125 17.38296875 7.953125 16.72296875 7.953125 16.04296875 C7.2725 15.79546875 6.591875 15.54796875 5.890625 15.29296875 C-3.49042339 11.30103327 -3.49042339 11.30103327 -5.484375 6.79296875 C-5.67 5.88546875 -5.855625 4.97796875 -6.046875 4.04296875 C-4.28243726 1.61686685 -3.12317824 0.0655629 0 0 Z " fill="#FEFCF6" transform="translate(131.046875,73.95703125)"/>
<path d="M0 0 C0.86625 0.00386719 1.7325 0.00773437 2.625 0.01171875 C5 0.3125 5 0.3125 8 2.3125 C9.66790887 7.31622661 9.26842299 12.5107131 9.3125 17.75 C9.34150391 18.89533203 9.37050781 20.04066406 9.40039062 21.22070312 C9.40876953 22.32220703 9.41714844 23.42371094 9.42578125 24.55859375 C9.44036377 25.56591553 9.45494629 26.5732373 9.4699707 27.61108398 C8.87421637 31.03551086 7.70946178 32.20342152 5 34.3125 C2.375 34.6875 2.375 34.6875 0 34.3125 C-2.43914492 31.87335508 -2.28662523 31.09803569 -2.4140625 27.7421875 C-2.45273438 26.84628906 -2.49140625 25.95039062 -2.53125 25.02734375 C-2.5621875 24.09019531 -2.593125 23.15304688 -2.625 22.1875 C-2.66367188 21.24261719 -2.70234375 20.29773438 -2.7421875 19.32421875 C-2.83661346 16.98717625 -2.92218394 14.65014499 -3 12.3125 C-3.64066406 12.05339844 -4.28132813 11.79429688 -4.94140625 11.52734375 C-7 10.3125 -7 10.3125 -7.9375 6.875 C-8 3.3125 -8 3.3125 -6.81640625 1.609375 C-4.42745582 -0.09628423 -2.91266091 -0.05634612 0 0 Z " fill="#FEFBF4" transform="translate(71,48.6875)"/>
<path d="M0 0 C3.07921132 -0.25660094 5.21136993 -0.39431504 8 1 C8 1.66 8 2.32 8 3 C8.66 3 9.32 3 10 3 C12.21747812 5.30276574 12.96760006 6.52480092 13.1875 9.75 C13.0946875 10.86375 13.0946875 10.86375 13 12 C12.34 12 11.68 12 11 12 C10.73050537 12.59474121 10.46101074 13.18948242 10.18334961 13.80224609 C9.00333033 15.99381481 7.82482198 17.41967449 6.06640625 19.1640625 C5.49986328 19.72867188 4.93332031 20.29328125 4.34960938 20.875 C3.75986328 21.4525 3.17011719 22.03 2.5625 22.625 C1.97662109 23.21023437 1.39074219 23.79546875 0.78710938 24.3984375 C-1.73992282 26.89965438 -4.02424615 29.0161641 -7 31 C-10.32240324 30.6758631 -11.60776303 30.39223697 -14 28 C-14.5 25.24609375 -14.5 25.24609375 -14 22 C-11.56365384 19.24823403 -9.0541358 16.95875285 -6.265625 14.58789062 C-2.56995008 11.24403462 -2.56995008 11.24403462 -1.75 6.30859375 C-1.8325 5.21675781 -1.915 4.12492187 -2 3 C-1.34 2.01 -0.68 1.02 0 0 Z " fill="#FEFCF8" transform="translate(120,94)"/>
</svg>
